<svg xmlns="http://www.w3.org/2000/svg" viewBox="0 0 153.94 188.03"><defs><style>.cls-1{fill:#593919;}.cls-2{fill:#66411e;}.cls-3{fill:#754a22;}.cls-4{fill:#7d4e24;}.cls-5{fill:#009640;}.cls-6{fill:#e94f33;}.cls-7{fill:#ca452b;}.cls-8{fill:#ffed00;}.cls-9{fill:#063;}.cls-10{fill:#cd864c;}.cls-11{fill:#a66c3e;}</style></defs><title>Flower</title><g id="Layer_2" data-name="Layer 2"><g id="Layer_1-2" data-name="Layer 1"><rect class="cls-1" width="17.37" height="188.03" rx="5.29"/><rect class="cls-2" x="3.67" width="13.7" height="188.03" rx="5.29"/><rect class="cls-3" x="6.8" width="10.57" height="188.03" rx="5.29"/><rect class="cls-1" x="132.42" width="21.52" height="188.03" rx="10.76"/><path class="cls-4" d="M151.72,8.74V179.29A8.74,8.74,0,0,1,143,188H12.08V0H143A8.74,8.74,0,0,1,151.72,8.74Z"/><path class="cls-5" d="M82.2,92.14a5.8,5.8,0,0,1-4.07.75,5.57,5.57,0,0,1,2.49-3.21,5.85,5.85,0,0,1,4.07-.75A5.54,5.54,0,0,1,82.2,92.14Z"/><path class="cls-5" d="M71.82,93.32a5.75,5.75,0,0,1-3.64-1.91,5.88,5.88,0,0,1,7.67.93A5.83,5.83,0,0,1,71.82,93.32Z"/><path class="cls-6" d="M91,66.27a9.88,9.88,0,0,0,5.22-8.66A10.08,10.08,0,0,0,86,47.68a10.28,10.28,0,0,0-9,5.22,10.26,10.26,0,0,0-9-5.22,10.08,10.08,0,0,0-10.22,9.93A9.92,9.92,0,0,0,63,66.27a9.87,9.87,0,0,0-5.21,8.65A10.08,10.08,0,0,0,68,84.85a10.28,10.28,0,0,0,7.55-3.26,9.52,9.52,0,0,0,1.44-2,9.86,9.86,0,0,0,1.46,2A10.34,10.34,0,0,0,86,84.85a10.08,10.08,0,0,0,10.22-9.93A9.84,9.84,0,0,0,91,66.27Zm-14,6.2a6.21,6.21,0,1,1,6.38-6.2A6.3,6.3,0,0,1,77,72.47Z"/><ellipse class="cls-7" cx="76.98" cy="66.27" rx="6.38" ry="6.21"/><ellipse class="cls-8" cx="76.98" cy="66.27" rx="6.38" ry="6.21"/><path class="cls-9" d="M78.43,81.63v28.23h-2.9V81.59a9.52,9.52,0,0,0,1.44-2A9.86,9.86,0,0,0,78.43,81.63Z"/><polygon class="cls-10" points="64.22 134.21 89.73 134.21 89.31 140.35 64.65 140.35 64.22 134.21"/><polygon class="cls-10" points="90.47 123.48 90.07 129.31 63.89 129.31 63.47 123.48 90.47 123.48"/><polygon class="cls-10" points="91.21 112.74 90.82 118.57 63.14 118.57 62.73 112.74 91.21 112.74"/><polygon class="cls-10" points="91.96 102 91.56 107.83 62.38 107.83 61.98 102 91.96 102"/><polygon class="cls-11" points="91.56 107.83 91.21 112.74 62.73 112.74 62.38 107.83 91.56 107.83"/><polygon class="cls-11" points="90.81 118.57 90.46 123.48 63.46 123.48 63.13 118.57 90.81 118.57"/><polygon class="cls-11" points="90.06 129.31 89.72 134.21 64.21 134.21 63.88 129.31 90.06 129.31"/></g></g></svg>