<svg xmlns="http://www.w3.org/2000/svg" viewBox="0 0 153.94 188.03"><defs><style>.cls-1{fill:#593919;}.cls-2{fill:#66411e;}.cls-3{fill:#754a22;}.cls-4{fill:#7d4e24;}.cls-5{fill:none;}.cls-10,.cls-5,.cls-7,.cls-9{stroke:#936037;}.cls-10,.cls-5,.cls-7,.cls-8,.cls-9{stroke-miterlimit:10;}.cls-6,.cls-8{fill:#b2b2b2;}.cls-6{stroke:#c6c6c6;stroke-linejoin:round;}.cls-7,.cls-9{fill:#ca9e67;}.cls-8{stroke:#9d9d9c;stroke-width:0.5px;}.cls-10,.cls-8,.cls-9{stroke-linecap:round;}.cls-10{fill:#b17f4a;}</style></defs><title>Gill</title><g id="Layer_2" data-name="Layer 2"><g id="Layer_1-2" data-name="Layer 1"><rect class="cls-1" width="17.37" height="188.03" rx="5.29"/><rect class="cls-2" x="3.67" width="13.7" height="188.03" rx="5.29"/><rect class="cls-3" x="6.8" width="10.57" height="188.03" rx="5.29"/><rect class="cls-1" x="132.42" width="21.52" height="188.03" rx="10.76"/><path class="cls-4" d="M151.72,8.74V179.29A8.74,8.74,0,0,1,143,188H12.08V0H143A8.74,8.74,0,0,1,151.72,8.74Z"/><rect class="cls-5" x="49.61" y="19.59" width="54.97" height="148.86"/><path class="cls-6" d="M103.17,39.85,51.41,67.93V39.85Z"/><rect class="cls-7" x="49.81" y="23.8" width="54.57" height="16.05"/><path class="cls-8" d="M52.3,66.5l48.23-25.88"/><path class="cls-9" d="M103.14,151.11C99.93,140.94,89.46,133.5,77,133.5s-22.89,7.44-26.1,17.61a21.8,21.8,0,0,0,1.81,17.33h48.58a21.8,21.8,0,0,0,1.81-17.33ZM76.9,148.59a6,6,0,1,1,6-6A6,6,0,0,1,76.9,148.59Z"/><rect class="cls-10" x="49.36" y="151.11" width="55.22" height="17.33"/></g></g></svg>