<svg xmlns="http://www.w3.org/2000/svg" viewBox="0 0 205.67 206.18"><defs><style>.cls-1{fill:#b2b2b2;}.cls-2{fill:#878787;}.cls-3{fill:#9d9d9c;}.cls-4{fill:#706f6f;}.cls-5{fill:#575756;}</style></defs><title>Asset 2</title><g id="Layer_2" data-name="Layer 2"><g id="Layer_1-2" data-name="Layer 1"><path class="cls-1" d="M123,1.9q-4.78-.45-9.69-.45a103.23,103.23,0,0,0-13.11.83h0a103.15,103.15,0,0,0-6.61,203.55,103.09,103.09,0,0,1-75.94-45.09l-.08-.13A103.2,103.2,0,0,1,123,1.9Z"/><path class="cls-2" d="M205.67,103a103.14,103.14,0,0,1-98.69,103A103.16,103.16,0,0,0,113.65,2.53q-4.79-.45-9.69-.45c-1.48,0-2.95,0-4.42.1a103.23,103.23,0,0,1,13.11-.83q4.91,0,9.69.45A103.19,103.19,0,0,1,205.67,103Z"/><path class="cls-3" d="M197.19,103.77a103.16,103.16,0,0,1-90,102.31h0c-1.47.07-2.94.1-4.42.1q-4.87,0-9.63-.45A103.15,103.15,0,0,1,99.72,2.18a0,0,0,0,1,0,0c1.47-.07,2.94-.1,4.42-.1q4.9,0,9.69.45A103.19,103.19,0,0,1,197.19,103.77Z"/><circle class="cls-2" cx="73.01" cy="79.99" r="49.08"/><circle class="cls-2" cx="114.06" cy="106.27" r="29.19"/><circle class="cls-2" cx="174.5" cy="71.73" r="14.59"/><circle class="cls-2" cx="136.68" cy="131.49" r="14.59"/><circle class="cls-4" cx="73.01" cy="78.54" r="27.74"/><circle class="cls-4" cx="114.06" cy="107.73" r="13.87"/><circle class="cls-4" cx="136.68" cy="131.49" r="10.22"/><circle class="cls-4" cx="174.5" cy="71.73" r="6.9"/><circle class="cls-5" cx="73.01" cy="77.09" r="13.19"/><circle class="cls-5" cx="114.06" cy="107.73" r="7.57"/><circle class="cls-5" cx="136.68" cy="131.49" r="5.89"/><circle class="cls-5" cx="174.5" cy="71.73" r="3.94"/></g></g></svg>