<svg xmlns="http://www.w3.org/2000/svg" viewBox="0 0 153.94 188.03"><defs><style>.cls-1{fill:#593919;}.cls-2{fill:#66411e;}.cls-3{fill:#754a22;}.cls-4{fill:#7d4e24;}.cls-5{fill:#ef7848;}.cls-6{fill:#fdd9ae;}.cls-7{fill:#da4b51;}.cls-8{fill:#c5605a;}.cls-10,.cls-9{fill:none;}.cls-9{stroke:#fdd9ae;stroke-miterlimit:10;stroke-width:5px;}</style></defs><title>Asset 6</title><g id="Layer_2" data-name="Layer 2"><g id="Layer_1-2" data-name="Layer 1"><rect class="cls-1" width="17.37" height="188.03" rx="5.29"/><rect class="cls-2" x="3.67" width="13.7" height="188.03" rx="5.29"/><rect class="cls-3" x="6.8" width="10.57" height="188.03" rx="5.29"/><rect class="cls-1" x="132.42" width="21.52" height="188.03" rx="10.76"/><path class="cls-4" d="M151.72,8.74V179.29A8.74,8.74,0,0,1,143,188H12.08V0H143A8.74,8.74,0,0,1,151.72,8.74Z"/><path class="cls-5" d="M109.49,101.5v.08c0,.58,0,1.17,0,1.75,0,1-.14,2-.27,2.9,0,.15,0,.3-.07.45s0,.3-.07.45-.1.59-.15.88-.09.45-.14.68a.43.43,0,0,1,0,0c-.15.73-.33,1.45-.53,2.16h0a34.4,34.4,0,0,1-5.55,11.29l0,0A33.85,33.85,0,0,1,99.34,126h0a34.52,34.52,0,0,1-58.39-18.67h0a33.72,33.72,0,0,1-.48-5.26h0c0-.17,0-.34,0-.51v-.08Z"/><path class="cls-6" d="M101.23,118.21c0,.07,0,.15,0,.23-.18,2.7-2.86,4.62-7.47,4.3a25.8,25.8,0,0,1-9.59-3c-4.84-2.44-10.55-6.54-16.89-12.85-1.91-1.9-3.61-3.71-5.15-5.42H67c9,6.77,17.18,9.43,18.74,5.52a6,6,0,0,0,0-3.56,12,12,0,0,0-.67-2h8.61c1.14,1.41,2.18,2.81,3.11,4.22a30.23,30.23,0,0,1,3.61,7.15A15.18,15.18,0,0,1,101.23,118.21Z"/><path class="cls-7" d="M103,101.5a17.45,17.45,0,0,1-6.18,4.22A23.14,23.14,0,0,1,85.76,107a40.49,40.49,0,0,1-16.14-5.52Z"/><path class="cls-8" d="M109.45,103.33c0,1-.14,2-.27,2.9,0,.15,0,.3-.07.45s0,.3-.07.45-.1.59-.15.88c-.19,1-.42,1.94-.69,2.89h0a35.71,35.71,0,0,1-14.45,11.84c-12.18,5.42-27.88,3.55-39.64-16.75-.79-1.37-1.77-2.93-2.84-4.49H59c.32.46.56.82.71,1,6.12,9.52,11,17,23.36,17.23.37,0,.74,0,1.11,0,6.31-.25,11.93-3.41,16.27-6.9A49.44,49.44,0,0,0,109.45,103.33Z"/><path class="cls-7" d="M103.11,121.53l-.45.66,0,0A33.85,33.85,0,0,1,99.34,126h0c-6.31,4.9-17.75,11.35-30.72,7.3-12-3.75-24.64-21.22-27.67-26h0a33.72,33.72,0,0,1-.48-5.26c2.82,5.72,19,22.73,19.2,22.89a24.79,24.79,0,0,0,11.21,6.81c14.25,4.59,32.05-10.1,32.22-10.25Z"/><ellipse class="cls-9" cx="76.97" cy="102.25" rx="29.51" ry="60.69" transform="matrix(0.6, -0.8, 0.8, 0.6, -51.02, 102.19)"/><path class="cls-5" d="M109.49,101.5h-69a34.36,34.36,0,0,1,1.11-8.6h0c0-.18.08-.34.13-.51a.83.83,0,0,1,0-.15v0a34.18,34.18,0,0,1,7.08-13.16c0-.07.11-.13.17-.2l.39-.43c.48-.53,1-1,1.49-1.55a33.47,33.47,0,0,1,3.19-2.75l.22-.17A34.54,34.54,0,0,1,95.77,74q.45.35.9.72c.45.36.89.73,1.32,1.12h0a33.83,33.83,0,0,1,2.61,2.61l0,0q.69.77,1.32,1.56a35.29,35.29,0,0,1,2.68,3.85l.24.42c.09.15.18.3.26.46a33.4,33.4,0,0,1,2.53,5.69c.07.19.13.39.19.58.14.41.26.83.38,1.24A34.53,34.53,0,0,1,109.49,101.5Z"/><path class="cls-6" d="M76.52,69.94A4.92,4.92,0,0,1,75,69.83a4.56,4.56,0,0,1,1.66.11Z"/><path class="cls-6" d="M90.05,71.38a2,2,0,0,0-1.49.2c-.14.41,0,.53.88,1.47,2.41,2.52,4.29,5.8-.43,7.16-2.7.78-10.62-.33-13-5-1.62-3.17.08-4.74.63-5.26-1.9,4.31,6.66,8.81,10.37,6.7a1.66,1.66,0,0,0,.5-2.5,9.84,9.84,0,0,0-3.12-2.92,1.56,1.56,0,0,1-.66-.56l.07-.19.55-.21c.89-.12.89-.12,1.19-.14a26.26,26.26,0,0,1,4.52,1.26Z"/><path class="cls-6" d="M48.68,81.57c-1.66,1.11-1.92,1-2.28.91.14-.29.51-1,2.42-1l-.14.11Z"/><path class="cls-6" d="M67,101.5h-4.9C52.73,91,49.86,84,48.82,81.46A74.26,74.26,0,0,0,67,101.5Z"/><path class="cls-6" d="M93.71,101.5H85.1a19.49,19.49,0,0,0-1.17-2.26,43.71,43.71,0,0,0-6.69-8.06,76.61,76.61,0,0,0-12.1-9.49c-1.23-.77-2.07-1.25-2.31-1.39A11.56,11.56,0,0,1,60,78.24l-.59-.94c0-.46-.1-1.08-.11-1.5.63-1.4.63-1.4.93-1.75.28,0,.56,0,.85,0a29.21,29.21,0,0,1,8,1.36l1.15.37c-.8,0-1.09.32-1.17.84h0a5.56,5.56,0,0,0,.06,1.24,0,0,0,0,0,0,0c0,.06,0,.13,0,.19,1.35,2.1,1.94,2.56,6.45,6.16,3.24,2.58,6.63,5.46,9.84,8.5,2.2,2.07,4.32,4.22,6.25,6.4C92.4,99.92,93.07,100.71,93.71,101.5Z"/><path class="cls-8" d="M101.38,88.12A9.79,9.79,0,0,1,94,92.92C82.45,94.11,72.8,89.61,70,81.7a18.76,18.76,0,0,1-.62-8.88c.19-1.47,0-1.64-.22-1.87s-3.19,0-5.45.37c-3.37.49-3.73.48-4,.18.27-.31.91-1,5.28-2.36l.52-.15c4.54-1.21,7.42-1.52,9.22-.93l.17,0a4,4,0,0,1,.55.26,3.09,3.09,0,0,1,.66.48l.09.08L76,68.88h0c-.14,0-.27-.11-.41-.15a11.54,11.54,0,0,0-3.86-.56c-.37,0-.73,0-1.07.06a10.64,10.64,0,0,0-4.27,1.09c.45.24,1.06.21,7.9-.22l.62,0h.08l.57,0-.55.26C69.81,72.1,74.35,82.19,81,85.19c3.9,1.75,10,2.35,13,.24,4-2.79,1.17-7.27,2.63-10.69.45.36.89.73,1.32,1.12h0a33.83,33.83,0,0,1,2.61,2.61s0,0,0,0c.46.5.9,1,1.32,1.55C101.59,82.72,102.87,85.56,101.38,88.12Z"/><path class="cls-7" d="M71.2,68.17c1.16-.08,1.16-.08,1.73-.09l1.3,0c1.27,0,1.33.66,1.33.66a13.3,13.3,0,0,0-1.21.72c-.14-.93-1.45-1.34-3.9-1.2l.75-.06Z"/><path class="cls-7" d="M108.23,92.39c-.16.4-.36.91-.64,1.65a22.83,22.83,0,0,1-4.59,7.61H69.62a16.15,16.15,0,0,1-1.79-1.28c-6.16-5.29-6.94-13.12-10.78-19.5-2-3.28-3.89-3.39-7.67-2.43.48-.53,1-1,1.49-1.55a33.68,33.68,0,0,1,3.19-2.77l.22-.17c5.3-.69,5.91-.71,6.77.09.1.09.21.2.32.32.79.8,1.24,1.69,3.77,7.38.32.74.69,1.56,1.1,2.48A39.46,39.46,0,0,0,70.75,92c1.75,2.2,7,6.11,13.18,7.36a17.16,17.16,0,0,0,7.77-.11c5.06-1.31,10-5.4,13.43-14.43a33.7,33.7,0,0,1,2.53,5.72c.07.19.13.39.19.58C108,91.56,108.11,92,108.23,92.39Z"/><path class="cls-8" d="M59,101.5H51.27c-3.39-5-7.65-10-9.58-9.11a.83.83,0,0,1,0-.15v0a34.82,34.82,0,0,1,2.45-6.28C46.79,84.67,56.09,97.31,59,101.5Z"/><path class="cls-10" d="M76.87,93.61h.34l-.88,0,.94-.18c.16,0,.18.06.34,0a1.75,1.75,0,0,0-.33,1.06C77.14,94.21,77,94,76.87,93.61Z"/><path class="cls-10" d="M76.77,94l.13.54-.16-1c.21.47.27.79.48,1.26-.29-.65-.21-1.14-.74-1.7a5.38,5.38,0,0,0,1,1.95C77.46,94.39,77.14,94.46,76.77,94Z"/></g></g></svg>