<svg width="608" height="277" viewBox="0 0 608 277" fill="none" xmlns="http://www.w3.org/2000/svg">
<circle cx="147.44" cy="15.8" r="3.16" fill="white"/>
<circle cx="122.16" cy="53.72" r="3.16" fill="white"/>
<circle cx="194.84" cy="75.84" r="3.16" fill="white"/>
<circle r="3.16" transform="matrix(-1 0 0 1 213.8 25.28)" fill="white"/>
<circle cx="261.2" cy="3.16" r="3.16" fill="white"/>
<circle cx="318.08" cy="12.64" r="3.16" fill="white"/>
<circle cx="374" cy="27" r="5" fill="white"/>
<circle cx="354.902" cy="198.116" r="2.67647" transform="rotate(10.397 354.902 198.116)" fill="white"/>
<circle cx="313.902" cy="263.116" r="2.67647" transform="rotate(10.397 313.902 263.116)" fill="white"/>
<circle cx="226.902" cy="252.116" r="2.67647" transform="rotate(10.397 226.902 252.116)" fill="white"/>
<circle cx="218.902" cy="187.116" r="2.67647" transform="rotate(10.397 218.902 187.116)" fill="white"/>
<circle cx="162.475" cy="160.544" r="2.67647" transform="rotate(10.397 162.475 160.544)" fill="white"/>
<circle cx="102.675" cy="130.524" r="2.67647" transform="rotate(10.397 102.675 130.524)" fill="white"/>
<circle cx="20.902" cy="114.116" r="2.67647" transform="rotate(10.397 20.902 114.116)" fill="white"/>
<circle cx="230.627" cy="221.469" r="1.30698" transform="rotate(10.397 230.627 221.469)" fill="white"/>
<circle cx="210.606" cy="253.21" r="1.30698" transform="rotate(10.397 210.606 253.21)" fill="white"/>
<circle cx="168.122" cy="247.839" r="1.30698" transform="rotate(10.397 168.122 247.839)" fill="white"/>
<circle cx="164.215" cy="216.098" r="1.30698" transform="rotate(10.397 164.215 216.098)" fill="white"/>
<circle cx="136.661" cy="203.122" r="1.30698" transform="rotate(10.397 136.661 203.122)" fill="white"/>
<circle cx="107.46" cy="188.463" r="1.30698" transform="rotate(10.397 107.46 188.463)" fill="white"/>
<circle cx="67.5279" cy="180.45" r="1.30698" transform="rotate(10.397 67.5279 180.45)" fill="white"/>
<circle cx="248.207" cy="182.404" r="1.30698" transform="rotate(10.397 248.207 182.404)" fill="white"/>
<circle cx="228.186" cy="214.145" r="1.30698" transform="rotate(10.397 228.186 214.145)" fill="white"/>
<circle cx="185.702" cy="208.773" r="1.30698" transform="rotate(10.397 185.702 208.773)" fill="white"/>
<circle cx="181.796" cy="177.032" r="1.30698" transform="rotate(10.397 181.796 177.032)" fill="white"/>
<circle cx="154.241" cy="164.057" r="1.30698" transform="rotate(10.397 154.241 164.057)" fill="white"/>
<circle cx="125.04" cy="149.397" r="1.30698" transform="rotate(10.397 125.04 149.397)" fill="white"/>
<circle cx="85.1078" cy="141.385" r="1.30698" transform="rotate(10.397 85.1078 141.385)" fill="white"/>
<circle cx="436.017" cy="162.524" r="1.30698" transform="rotate(10.397 436.017 162.524)" fill="white"/>
<circle cx="415.996" cy="194.265" r="1.30698" transform="rotate(10.397 415.996 194.265)" fill="white"/>
<circle cx="373.513" cy="188.893" r="1.30698" transform="rotate(10.397 373.513 188.893)" fill="white"/>
<circle cx="369.606" cy="157.152" r="1.30698" transform="rotate(10.397 369.606 157.152)" fill="white"/>
<circle cx="342.051" cy="144.177" r="1.30698" transform="rotate(10.397 342.051 144.177)" fill="white"/>
<circle cx="312.85" cy="129.517" r="1.30698" transform="rotate(10.397 312.85 129.517)" fill="white"/>
<circle cx="272.918" cy="121.505" r="1.30698" transform="rotate(10.397 272.918 121.505)" fill="white"/>
<circle cx="453.597" cy="123.458" r="1.30698" transform="rotate(10.397 453.597 123.458)" fill="white"/>
<circle cx="433.576" cy="155.199" r="1.30698" transform="rotate(10.397 433.576 155.199)" fill="white"/>
<circle cx="391.092" cy="149.827" r="1.30698" transform="rotate(10.397 391.092 149.827)" fill="white"/>
<circle cx="387.185" cy="118.087" r="1.30698" transform="rotate(10.397 387.185 118.087)" fill="white"/>
<circle cx="359.631" cy="105.111" r="1.30698" transform="rotate(10.397 359.631 105.111)" fill="white"/>
<circle cx="330.429" cy="90.4517" r="1.30698" transform="rotate(10.397 330.429 90.4517)" fill="white"/>
<circle cx="290.497" cy="82.4391" r="1.30698" transform="rotate(10.397 290.497 82.4391)" fill="white"/>
<circle cx="201.157" cy="108.183" r="1.30698" transform="rotate(10.397 201.157 108.183)" fill="white"/>
<circle cx="181.136" cy="139.924" r="1.30698" transform="rotate(10.397 181.136 139.924)" fill="white"/>
<circle cx="138.652" cy="134.553" r="1.30698" transform="rotate(10.397 138.652 134.553)" fill="white"/>
<circle cx="134.745" cy="102.812" r="1.30698" transform="rotate(10.397 134.745 102.812)" fill="white"/>
<circle cx="107.191" cy="89.8364" r="1.30698" transform="rotate(10.397 107.191 89.8364)" fill="white"/>
<circle cx="77.9896" cy="75.177" r="1.30698" transform="rotate(10.397 77.9896 75.177)" fill="white"/>
<circle cx="38.0577" cy="67.1644" r="1.30698" transform="rotate(10.397 38.0577 67.1644)" fill="white"/>
<circle cx="218.737" cy="69.1177" r="1.30698" transform="rotate(10.397 218.737 69.1177)" fill="white"/>
<circle cx="198.716" cy="100.859" r="1.30698" transform="rotate(10.397 198.716 100.859)" fill="white"/>
<circle cx="156.232" cy="95.4871" r="1.30698" transform="rotate(10.397 156.232 95.4871)" fill="white"/>
<circle cx="152.325" cy="63.7462" r="1.30698" transform="rotate(10.397 152.325 63.7462)" fill="white"/>
<circle cx="124.771" cy="50.7707" r="1.30698" transform="rotate(10.397 124.771 50.7707)" fill="white"/>
<circle cx="95.5694" cy="36.1113" r="1.30698" transform="rotate(10.397 95.5694 36.1113)" fill="white"/>
<circle cx="55.6375" cy="28.0987" r="1.30698" transform="rotate(10.397 55.6375 28.0987)" fill="white"/>
<circle cx="583.012" cy="94.1319" r="1.58269" transform="rotate(10.397 583.012 94.1319)" fill="white"/>
<circle cx="558.768" cy="132.569" r="1.58269" transform="rotate(10.397 558.768 132.569)" fill="white"/>
<circle cx="507.322" cy="126.064" r="1.58269" transform="rotate(10.397 507.322 126.064)" fill="white"/>
<circle cx="502.591" cy="87.6272" r="1.58269" transform="rotate(10.397 502.591 87.6272)" fill="white"/>
<circle cx="469.223" cy="71.9145" r="1.58269" transform="rotate(10.397 469.223 71.9145)" fill="white"/>
<circle cx="433.862" cy="54.1626" r="1.58269" transform="rotate(10.397 433.862 54.1626)" fill="white"/>
<circle cx="385.507" cy="44.4598" r="1.58269" transform="rotate(10.397 385.507 44.4598)" fill="white"/>
<circle cx="473.747" cy="44.3884" r="2.55166" transform="rotate(38.2616 473.747 44.3884)" fill="white"/>
<circle cx="490.7" cy="132.529" r="2.55166" transform="rotate(38.2616 490.7 132.529)" fill="white"/>
<circle cx="443.163" cy="66.7666" r="2.55166" transform="rotate(38.2616 443.163 66.7666)" fill="white"/>
<circle cx="449.811" cy="136.957" r="2.55166" transform="rotate(38.2616 449.811 136.957)" fill="white"/>
<circle cx="550.005" cy="97.2063" r="2.55166" transform="rotate(38.2616 550.005 97.2063)" fill="white"/>
<circle cx="572.46" cy="178.88" r="2.55166" transform="rotate(38.2616 572.46 178.88)" fill="white"/>
<circle cx="506" cy="93.736" r="2.55166" transform="rotate(38.2616 506 93.736)" fill="white"/>
<circle cx="368.419" cy="242.291" r="0.871395" transform="rotate(10.397 368.419 242.291)" fill="white"/>
<circle cx="355.07" cy="263.453" r="0.871395" transform="rotate(10.397 355.07 263.453)" fill="white"/>
<circle cx="326.745" cy="259.872" r="0.871395" transform="rotate(10.397 326.745 259.872)" fill="white"/>
<circle cx="324.141" cy="238.709" r="0.871395" transform="rotate(10.397 324.141 238.709)" fill="white"/>
<circle cx="305.769" cy="230.058" r="0.871395" transform="rotate(10.397 305.769 230.058)" fill="white"/>
<circle cx="286.3" cy="220.284" r="0.871395" transform="rotate(10.397 286.3 220.284)" fill="white"/>
<circle cx="259.676" cy="214.942" r="0.871395" transform="rotate(10.397 259.676 214.942)" fill="white"/>
<circle cx="482.36" cy="228.198" r="1.63864" transform="rotate(10.397 482.36 228.198)" fill="white"/>
<circle cx="457.259" cy="267.993" r="1.63864" transform="rotate(10.397 457.259 267.993)" fill="white"/>
<circle cx="403.993" cy="261.259" r="1.63864" transform="rotate(10.397 403.993 261.259)" fill="white"/>
<circle cx="399.096" cy="221.463" r="1.63864" transform="rotate(10.397 399.096 221.463)" fill="white"/>
<circle cx="364.549" cy="205.195" r="1.63864" transform="rotate(10.397 364.549 205.195)" fill="white"/>
<circle cx="327.937" cy="186.815" r="1.63864" transform="rotate(10.397 327.937 186.815)" fill="white"/>
<circle cx="277.872" cy="176.77" r="1.63864" transform="rotate(10.397 277.872 176.77)" fill="white"/>
</svg>
